<svg width="90" height="90" viewBox="0 0 90 90" fill="none" xmlns="http://www.w3.org/2000/svg">
<path d="M37.6017 4.13539C41.5691 -0.227341 48.4308 -0.227338 52.3982 4.13539L54.4619 6.40471C56.675 8.8383 59.9434 10.0279 63.203 9.58619L66.2426 9.17432C72.0861 8.38249 77.3425 12.7931 77.5774 18.6854L77.6996 21.7503C77.8306 25.0371 79.5697 28.0492 82.3506 29.8061L84.9438 31.4444C89.9292 34.594 91.1207 41.3514 87.5132 46.0162L85.6367 48.4426C83.6244 51.0446 83.0205 54.4699 84.0215 57.6033L84.9549 60.5252C86.7494 66.1424 83.3186 72.0848 77.5566 73.3394L74.5595 73.9919C71.3454 74.6917 68.681 76.9274 67.4337 79.9712L66.2706 82.8095C64.0346 88.266 57.5867 90.6129 52.3664 87.8702L49.651 86.4436C46.739 84.9137 43.2609 84.9137 40.3489 86.4436L37.6335 87.8702C32.4132 90.6129 25.9653 88.266 23.7293 82.8095L22.5662 79.9712C21.3189 76.9274 18.6545 74.6917 15.4404 73.9919L12.4433 73.3394C6.68133 72.0848 3.25048 66.1424 5.04499 60.5252L5.97843 57.6033C6.97943 54.4699 6.37547 51.0446 4.36315 48.4426L2.48666 46.0162C-1.12085 41.3514 0.0706735 34.594 5.05606 31.4444L7.64927 29.8061C10.4302 28.0492 12.1692 25.0371 12.3003 21.7503L12.4225 18.6854C12.6574 12.7931 17.9138 8.38249 23.7573 9.17432L26.7969 9.58619C30.0565 10.0279 33.3249 8.8383 35.5379 6.40471L37.6017 4.13539Z" fill="url(#paint0_linear_1_5)"/>
<path d="M37.6017 4.13539C41.5691 -0.227341 48.4308 -0.227338 52.3982 4.13539L54.4619 6.40471C56.675 8.8383 59.9434 10.0279 63.203 9.58619L66.2426 9.17432C72.0861 8.38249 77.3425 12.7931 77.5774 18.6854L77.6996 21.7503C77.8306 25.0371 79.5697 28.0492 82.3506 29.8061L84.9438 31.4444C89.9292 34.594 91.1207 41.3514 87.5132 46.0162L85.6367 48.4426C83.6244 51.0446 83.0205 54.4699 84.0215 57.6033L84.9549 60.5252C86.7494 66.1424 83.3186 72.0848 77.5566 73.3394L74.5595 73.9919C71.3454 74.6917 68.681 76.9274 67.4337 79.9712L66.2706 82.8095C64.0346 88.266 57.5867 90.6129 52.3664 87.8702L49.651 86.4436C46.739 84.9137 43.2609 84.9137 40.3489 86.4436L37.6335 87.8702C32.4132 90.6129 25.9653 88.266 23.7293 82.8095L22.5662 79.9712C21.3189 76.9274 18.6545 74.6917 15.4404 73.9919L12.4433 73.3394C6.68133 72.0848 3.25048 66.1424 5.04499 60.5252L5.97843 57.6033C6.97943 54.4699 6.37547 51.0446 4.36315 48.4426L2.48666 46.0162C-1.12085 41.3514 0.0706735 34.594 5.05606 31.4444L7.64927 29.8061C10.4302 28.0492 12.1692 25.0371 12.3003 21.7503L12.4225 18.6854C12.6574 12.7931 17.9138 8.38249 23.7573 9.17432L26.7969 9.58619C30.0565 10.0279 33.3249 8.8383 35.5379 6.40471L37.6017 4.13539Z" fill="url(#paint1_radial_1_5)" fill-opacity="0.2"/>
<defs>
<linearGradient id="paint0_linear_1_5" x1="0.395996" y1="0.863342" x2="93.598" y2="5.31027" gradientUnits="userSpaceOnUse">
<stop stop-color="#E9C878"/>
<stop offset="1" stop-color="#C1A050"/>
</linearGradient>
<radialGradient id="paint1_radial_1_5" cx="0" cy="0" r="1" gradientUnits="userSpaceOnUse" gradientTransform="translate(44.9999 44.9421) rotate(-108.242) scale(29.3124 86.9542)">
<stop stop-color="white"/>
<stop offset="1" stop-color="white" stop-opacity="0"/>
</radialGradient>
</defs>
</svg>
