<svg width="190" height="190" viewBox="0 0 190 190" fill="none" xmlns="http://www.w3.org/2000/svg">
<g filter="url(#filter0_d_301_1800)">
<path d="M87.6017 44.1354C91.5691 39.7727 98.4308 39.7727 102.398 44.1354L104.462 46.4047C106.675 48.8383 109.943 50.0279 113.203 49.5862L116.243 49.1743C122.086 48.3825 127.342 52.7931 127.577 58.6854L127.7 61.7503C127.831 65.0371 129.57 68.0492 132.351 69.8061L134.944 71.4444C139.929 74.594 141.121 81.3514 137.513 86.0162L135.637 88.4426C133.624 91.0446 133.02 94.4699 134.021 97.6033L134.955 100.525C136.749 106.142 133.319 112.085 127.557 113.339L124.559 113.992C121.345 114.692 118.681 116.927 117.434 119.971L116.271 122.809C114.035 128.266 107.587 130.613 102.366 127.87L99.651 126.444C96.739 124.914 93.2609 124.914 90.3489 126.444L87.6335 127.87C82.4132 130.613 75.9653 128.266 73.7293 122.809L72.5662 119.971C71.3189 116.927 68.6545 114.692 65.4404 113.992L62.4433 113.339C56.6813 112.085 53.2505 106.142 55.045 100.525L55.9784 97.6033C56.9794 94.4699 56.3755 91.0446 54.3631 88.4426L52.4867 86.0162C48.8792 81.3514 50.0707 74.594 55.0561 71.4444L57.6493 69.8061C60.4302 68.0492 62.1692 65.0371 62.3003 61.7503L62.4225 58.6854C62.6574 52.7931 67.9138 48.3825 73.7573 49.1743L76.7969 49.5862C80.0565 50.0279 83.3249 48.8383 85.5379 46.4047L87.6017 44.1354Z" fill="#BD9C4C"/>
</g>
<path d="M87.6017 43.1354C91.5691 38.7727 98.4308 38.7727 102.398 43.1354L104.462 45.4047C106.675 47.8383 109.943 49.0279 113.203 48.5862L116.243 48.1743C122.086 47.3825 127.342 51.7931 127.577 57.6854L127.7 60.7503C127.831 64.0371 129.57 67.0492 132.351 68.8061L134.944 70.4444C139.929 73.594 141.121 80.3514 137.513 85.0162L135.637 87.4426C133.624 90.0446 133.02 93.4699 134.021 96.6033L134.955 99.5252C136.749 105.142 133.319 111.085 127.557 112.339L124.559 112.992C121.345 113.692 118.681 115.927 117.434 118.971L116.271 121.809C114.035 127.266 107.587 129.613 102.366 126.87L99.651 125.444C96.739 123.914 93.2609 123.914 90.3489 125.444L87.6335 126.87C82.4132 129.613 75.9653 127.266 73.7293 121.809L72.5662 118.971C71.3189 115.927 68.6545 113.692 65.4404 112.992L62.4433 112.339C56.6813 111.085 53.2505 105.142 55.045 99.5252L55.9784 96.6033C56.9794 93.4699 56.3755 90.0446 54.3631 87.4426L52.4867 85.0162C48.8792 80.3514 50.0707 73.594 55.0561 70.4444L57.6493 68.8061C60.4302 67.0492 62.1692 64.0371 62.3003 60.7503L62.4225 57.6854C62.6574 51.7931 67.9138 47.3825 73.7573 48.1743L76.7969 48.5862C80.0565 49.0279 83.3249 47.8383 85.5379 45.4047L87.6017 43.1354Z" fill="url(#paint0_linear_301_1800)"/>
<path d="M87.6017 43.1354C91.5691 38.7727 98.4308 38.7727 102.398 43.1354L104.462 45.4047C106.675 47.8383 109.943 49.0279 113.203 48.5862L116.243 48.1743C122.086 47.3825 127.342 51.7931 127.577 57.6854L127.7 60.7503C127.831 64.0371 129.57 67.0492 132.351 68.8061L134.944 70.4444C139.929 73.594 141.121 80.3514 137.513 85.0162L135.637 87.4426C133.624 90.0446 133.02 93.4699 134.021 96.6033L134.955 99.5252C136.749 105.142 133.319 111.085 127.557 112.339L124.559 112.992C121.345 113.692 118.681 115.927 117.434 118.971L116.271 121.809C114.035 127.266 107.587 129.613 102.366 126.87L99.651 125.444C96.739 123.914 93.2609 123.914 90.3489 125.444L87.6335 126.87C82.4132 129.613 75.9653 127.266 73.7293 121.809L72.5662 118.971C71.3189 115.927 68.6545 113.692 65.4404 112.992L62.4433 112.339C56.6813 111.085 53.2505 105.142 55.045 99.5252L55.9784 96.6033C56.9794 93.4699 56.3755 90.0446 54.3631 87.4426L52.4867 85.0162C48.8792 80.3514 50.0707 73.594 55.0561 70.4444L57.6493 68.8061C60.4302 67.0492 62.1692 64.0371 62.3003 60.7503L62.4225 57.6854C62.6574 51.7931 67.9138 47.3825 73.7573 48.1743L76.7969 48.5862C80.0565 49.0279 83.3249 47.8383 85.5379 45.4047L87.6017 43.1354Z" fill="url(#paint1_radial_301_1800)" fill-opacity="0.2"/>
<defs>
<filter id="filter0_d_301_1800" x="0.395996" y="0.863342" width="189.208" height="188.158" filterUnits="userSpaceOnUse" color-interpolation-filters="sRGB">
<feFlood flood-opacity="0" result="BackgroundImageFix"/>
<feColorMatrix in="SourceAlpha" type="matrix" values="0 0 0 0 0 0 0 0 0 0 0 0 0 0 0 0 0 0 127 0" result="hardAlpha"/>
<feOffset dy="10"/>
<feGaussianBlur stdDeviation="25"/>
<feComposite in2="hardAlpha" operator="out"/>
<feColorMatrix type="matrix" values="0 0 0 0 0.913725 0 0 0 0 0.784314 0 0 0 0 0.470588 0 0 0 0.5 0"/>
<feBlend mode="normal" in2="BackgroundImageFix" result="effect1_dropShadow_301_1800"/>
<feBlend mode="normal" in="SourceGraphic" in2="effect1_dropShadow_301_1800" result="shape"/>
</filter>
<linearGradient id="paint0_linear_301_1800" x1="50.396" y1="39.8633" x2="143.598" y2="44.3103" gradientUnits="userSpaceOnUse">
<stop stop-color="#E9C878"/>
<stop offset="1" stop-color="#C1A050"/>
</linearGradient>
<radialGradient id="paint1_radial_301_1800" cx="0" cy="0" r="1" gradientUnits="userSpaceOnUse" gradientTransform="translate(94.9999 83.9421) rotate(-108.242) scale(29.3124 86.9542)">
<stop stop-color="white"/>
<stop offset="1" stop-color="white" stop-opacity="0"/>
</radialGradient>
</defs>
</svg>
